<?xml version="1.0" encoding="utf-8"?>
<!-- Generator: Adobe Illustrator 21.0.0, SVG Export Plug-In . SVG Version: 6.00 Build 0)  -->
<svg version="1.1"
	 id="svg3216" inkscape:version="0.48.3.1 r9886" sodipodi:docname="speed-car-logo-1.svg" xmlns:cc="http://creativecommons.org/ns#" xmlns:dc="http://purl.org/dc/elements/1.1/" xmlns:inkscape="http://www.inkscape.org/namespaces/inkscape" xmlns:rdf="http://www.w3.org/1999/02/22-rdf-syntax-ns#" xmlns:sodipodi="http://sodipodi.sourceforge.net/DTD/sodipodi-0.dtd" xmlns:svg="http://www.w3.org/2000/svg"
	 xmlns="http://www.w3.org/2000/svg" xmlns:xlink="http://www.w3.org/1999/xlink" x="0px" y="0px" viewBox="0 0 499.7 114.4"
	 style="enable-background:new 0 0 499.7 114.4;" xml:space="preserve">
<style type="text/css">
	.st0{fill:#FFFFFF;stroke:#FFFFFF;stroke-width:0.6505;}
	.st1{fill:#FFFFFF;}
</style>
<sodipodi:namedview  bordercolor="#666666" borderopacity="1" gridtolerance="10" guidetolerance="10" id="namedview19" inkscape:current-layer="svg3216" inkscape:cx="320" inkscape:cy="240" inkscape:pageopacity="0" inkscape:pageshadow="2" inkscape:window-height="1056" inkscape:window-maximized="1" inkscape:window-width="1855" inkscape:window-x="65" inkscape:window-y="24" inkscape:zoom="1.5083333" objecttolerance="10" pagecolor="#ffffff" showgrid="false">
	</sodipodi:namedview>
<path id="path3039" inkscape:connector-curvature="0" class="st0" d="M89.7,31.9c201.4-60,207.8-20.1,271.6,3.1l-24.6,3.5
	c-55.4-61.2-227-10.6-219.1,2.9L89.7,31.9z"/>
<path id="path3041" inkscape:connector-curvature="0" class="st0" d="M258.4,20c0,0-47.2-1.2-46.8,23.7
	c0.4,24.9,78.3,23.6,78.3,23.6s-67.5-3.6-67.9-25.5c-0.4-21.9,57.7-25,57.7-25L258.4,20z"/>
<path id="path3037" inkscape:connector-curvature="0" class="st0" d="M499.7,91.9L495,63.2c-88.3-42.3-152.2-31.7-211.9-11.8
	C357.9,38.4,431.3,39.3,499.7,91.9z"/>
<path id="path3035" inkscape:connector-curvature="0" class="st0" d="M113.2,38C140.3,64,103.9,69,96,90.2
	c44.3-39.4,58.9-27.2,88.4-40.8C140.4,56.7,136.8,41.8,113.2,38z"/>
<g id="text3080-1" transform="matrix(0.65048462,0,0,0.38169516,1378.1919,-188.55145)">
	<path id="path3085-3" inkscape:connector-curvature="0" class="st1" d="M-2034.1,696.7v15c-4.8-4.5-9.9-7.8-15.3-10
		c-5.4-2.2-11.1-3.3-17.2-3.3c-12,0-21.2,3.7-27.6,11c-6.4,7.3-9.6,17.9-9.6,31.8c0,13.8,3.2,24.4,9.6,31.8c6.4,7.3,15.6,11,27.6,11
		c6.1,0,11.8-1.1,17.2-3.3c5.4-2.2,10.5-5.5,15.3-10v14.8c-5,3.4-10.2,5.9-15.8,7.6c-5.5,1.7-11.4,2.5-17.6,2.5
		c-15.9,0-28.4-4.9-37.5-14.6c-9.1-9.7-13.7-23-13.7-39.9c0-16.9,4.6-30.2,13.7-39.9c9.1-9.7,21.7-14.6,37.5-14.6
		c6.3,0,12.2,0.8,17.7,2.5C-2044.2,690.9-2038.9,693.4-2034.1,696.7"/>
	<path id="path3087-68" inkscape:connector-curvature="0" class="st1" d="M-1969.4,698.3c-10.3,0-18.5,3.8-24.6,11.5
		c-6,7.7-9.1,18.2-9.1,31.4c0,13.2,3,23.7,9.1,31.4c6.1,7.7,14.3,11.5,24.6,11.5s18.5-3.8,24.5-11.5c6-7.7,9.1-18.1,9.1-31.4
		c0-13.3-3-23.7-9.1-31.4C-1950.9,702.1-1959.1,698.3-1969.4,698.3 M-1969.4,686.7c14.7,0,26.5,4.9,35.3,14.8
		c8.8,9.8,13.2,23.1,13.2,39.7c0,16.5-4.4,29.8-13.2,39.7c-8.8,9.8-20.6,14.8-35.3,14.8c-14.8,0-26.6-4.9-35.4-14.8
		c-8.8-9.8-13.2-23.1-13.2-39.7c0-16.6,4.4-29.8,13.2-39.7C-1995.9,691.7-1984.1,686.7-1969.4,686.7"/>
	<path id="path3089-99" inkscape:connector-curvature="0" class="st1" d="M-1898.6,688.6h21.2l26.8,71.4l26.9-71.4h21.2v105h-13.9
		v-92.2l-27.1,72h-14.3l-27.1-72v92.2h-13.8L-1898.6,688.6"/>
	<path id="path3091-17" inkscape:connector-curvature="0" class="st1" d="M-1760.1,700.3v39.4h17.9c6.6,0,11.7-1.7,15.3-5.1
		c3.6-3.4,5.4-8.3,5.4-14.6c0-6.3-1.8-11.1-5.4-14.6c-3.6-3.4-8.7-5.1-15.3-5.1H-1760.1 M-1774.3,688.6h32.1c11.8,0,20.6,2.7,26.6,8
		c6,5.3,9.1,13.1,9.1,23.3c0,10.4-3,18.2-9.1,23.5c-6,5.3-14.9,7.9-26.6,7.9h-17.9v42.2h-14.2V688.6"/>
	<path id="path3093-2" inkscape:connector-curvature="0" class="st1" d="M-1661.6,702.6l-19.3,52.2h38.6L-1661.6,702.6
		 M-1669.6,688.6h16.1l40,105h-14.8l-9.6-26.9h-47.3l-9.6,26.9h-15L-1669.6,688.6"/>
	<path id="path3095-8" inkscape:connector-curvature="0" class="st1" d="M-1598.3,688.6h19.1l46.5,87.8v-87.8h13.8v105h-19.1
		l-46.5-87.8v87.8h-13.8L-1598.3,688.6"/>
	<path id="path3097-1" inkscape:connector-curvature="0" class="st1" d="M-1505,688.6h15.3l29.1,43.2l28.9-43.2h15.3l-37.1,55v50
		h-14.3v-50L-1505,688.6"/>
</g>
</svg>
